<mxfile host="app.diagrams.net" agent="Mozilla/5.0 (Windows NT 10.0; Win64; x64) AppleWebKit/537.36 (KHTML, like Gecko) Chrome/131.0.0.0 Safari/537.36" version="25.0.1">
  <diagram name="Page-1" id="__A5EgDm0RF0tOn1FlWQ">
    <mxGraphModel dx="2736" dy="949" grid="1" gridSize="10" guides="1" tooltips="1" connect="1" arrows="1" fold="1" page="1" pageScale="1" pageWidth="827" pageHeight="1169" background="#ffffff" math="0" shadow="0">
      <root>
        <mxCell id="0" />
        <mxCell id="1" parent="0" />
        <mxCell id="Um1293ms99un0iSA9eyB-28" value="" style="edgeStyle=orthogonalEdgeStyle;rounded=0;orthogonalLoop=1;jettySize=auto;html=1;" edge="1" parent="1" source="Um1293ms99un0iSA9eyB-1" target="Um1293ms99un0iSA9eyB-27">
          <mxGeometry relative="1" as="geometry" />
        </mxCell>
        <mxCell id="Um1293ms99un0iSA9eyB-1" value="Start" style="ellipse;whiteSpace=wrap;html=1;" vertex="1" parent="1">
          <mxGeometry x="350" width="120" height="60" as="geometry" />
        </mxCell>
        <mxCell id="Um1293ms99un0iSA9eyB-16" value="" style="edgeStyle=orthogonalEdgeStyle;rounded=0;orthogonalLoop=1;jettySize=auto;html=1;" edge="1" parent="1" source="Um1293ms99un0iSA9eyB-13" target="Um1293ms99un0iSA9eyB-15">
          <mxGeometry relative="1" as="geometry" />
        </mxCell>
        <mxCell id="Um1293ms99un0iSA9eyB-18" value="" style="edgeStyle=orthogonalEdgeStyle;rounded=0;orthogonalLoop=1;jettySize=auto;html=1;" edge="1" parent="1" source="Um1293ms99un0iSA9eyB-13" target="Um1293ms99un0iSA9eyB-17">
          <mxGeometry relative="1" as="geometry" />
        </mxCell>
        <mxCell id="Um1293ms99un0iSA9eyB-13" value="Home" style="rhombus;whiteSpace=wrap;html=1;" vertex="1" parent="1">
          <mxGeometry x="340" y="330" width="140" height="60" as="geometry" />
        </mxCell>
        <mxCell id="Um1293ms99un0iSA9eyB-36" value="" style="edgeStyle=orthogonalEdgeStyle;rounded=0;orthogonalLoop=1;jettySize=auto;html=1;" edge="1" parent="1" source="Um1293ms99un0iSA9eyB-15" target="Um1293ms99un0iSA9eyB-35">
          <mxGeometry relative="1" as="geometry" />
        </mxCell>
        <mxCell id="Um1293ms99un0iSA9eyB-79" value="" style="edgeStyle=orthogonalEdgeStyle;rounded=0;orthogonalLoop=1;jettySize=auto;html=1;" edge="1" parent="1" source="Um1293ms99un0iSA9eyB-15" target="Um1293ms99un0iSA9eyB-78">
          <mxGeometry relative="1" as="geometry" />
        </mxCell>
        <mxCell id="Um1293ms99un0iSA9eyB-15" value="Employer" style="whiteSpace=wrap;html=1;" vertex="1" parent="1">
          <mxGeometry x="170" y="330" width="120" height="60" as="geometry" />
        </mxCell>
        <mxCell id="Um1293ms99un0iSA9eyB-69" value="" style="edgeStyle=orthogonalEdgeStyle;rounded=0;orthogonalLoop=1;jettySize=auto;html=1;" edge="1" parent="1" source="Um1293ms99un0iSA9eyB-17" target="Um1293ms99un0iSA9eyB-37">
          <mxGeometry relative="1" as="geometry" />
        </mxCell>
        <mxCell id="Um1293ms99un0iSA9eyB-17" value="Job Seeker" style="whiteSpace=wrap;html=1;" vertex="1" parent="1">
          <mxGeometry x="560" y="370" width="120" height="60" as="geometry" />
        </mxCell>
        <mxCell id="Um1293ms99un0iSA9eyB-19" value="&lt;span style=&quot;white-space: pre;&quot;&gt;&#x9;&lt;/span&gt;Username&lt;div&gt;&lt;span style=&quot;white-space: pre;&quot;&gt;&#x9;&lt;/span&gt;Email&lt;/div&gt;&lt;div&gt;&lt;span style=&quot;white-space: pre;&quot;&gt;&#x9;&lt;/span&gt;Password&lt;/div&gt;&lt;div&gt;&lt;span style=&quot;white-space: pre;&quot;&gt;&#x9;&lt;/span&gt;Confirm Password&lt;/div&gt;" style="shape=parallelogram;perimeter=parallelogramPerimeter;whiteSpace=wrap;html=1;fixedSize=1;align=left;" vertex="1" parent="1">
          <mxGeometry x="140" y="95" width="160" height="70" as="geometry" />
        </mxCell>
        <mxCell id="Um1293ms99un0iSA9eyB-30" value="" style="edgeStyle=orthogonalEdgeStyle;rounded=0;orthogonalLoop=1;jettySize=auto;html=1;" edge="1" parent="1" source="Um1293ms99un0iSA9eyB-27" target="Um1293ms99un0iSA9eyB-29">
          <mxGeometry relative="1" as="geometry" />
        </mxCell>
        <mxCell id="Um1293ms99un0iSA9eyB-32" value="" style="edgeStyle=orthogonalEdgeStyle;rounded=0;orthogonalLoop=1;jettySize=auto;html=1;" edge="1" parent="1" source="Um1293ms99un0iSA9eyB-27" target="Um1293ms99un0iSA9eyB-19">
          <mxGeometry relative="1" as="geometry" />
        </mxCell>
        <mxCell id="Um1293ms99un0iSA9eyB-54" value="" style="edgeStyle=orthogonalEdgeStyle;rounded=0;orthogonalLoop=1;jettySize=auto;html=1;" edge="1" parent="1" source="Um1293ms99un0iSA9eyB-27" target="Um1293ms99un0iSA9eyB-42">
          <mxGeometry relative="1" as="geometry" />
        </mxCell>
        <mxCell id="Um1293ms99un0iSA9eyB-27" value="Sign Up" style="whiteSpace=wrap;html=1;" vertex="1" parent="1">
          <mxGeometry x="350" y="100" width="120" height="60" as="geometry" />
        </mxCell>
        <mxCell id="Um1293ms99un0iSA9eyB-31" value="" style="edgeStyle=orthogonalEdgeStyle;rounded=0;orthogonalLoop=1;jettySize=auto;html=1;" edge="1" parent="1" source="Um1293ms99un0iSA9eyB-29" target="Um1293ms99un0iSA9eyB-13">
          <mxGeometry relative="1" as="geometry" />
        </mxCell>
        <mxCell id="Um1293ms99un0iSA9eyB-34" value="" style="edgeStyle=orthogonalEdgeStyle;rounded=0;orthogonalLoop=1;jettySize=auto;html=1;" edge="1" parent="1" source="Um1293ms99un0iSA9eyB-29" target="Um1293ms99un0iSA9eyB-33">
          <mxGeometry relative="1" as="geometry" />
        </mxCell>
        <mxCell id="Um1293ms99un0iSA9eyB-61" value="" style="edgeStyle=orthogonalEdgeStyle;rounded=0;orthogonalLoop=1;jettySize=auto;html=1;" edge="1" parent="1" source="Um1293ms99un0iSA9eyB-29" target="Um1293ms99un0iSA9eyB-60">
          <mxGeometry relative="1" as="geometry" />
        </mxCell>
        <mxCell id="Um1293ms99un0iSA9eyB-29" value="Sign In" style="whiteSpace=wrap;html=1;" vertex="1" parent="1">
          <mxGeometry x="350" y="200" width="120" height="60" as="geometry" />
        </mxCell>
        <mxCell id="Um1293ms99un0iSA9eyB-33" value="&lt;div&gt;&lt;span style=&quot;white-space: pre;&quot;&gt;&#x9;&lt;/span&gt;Email&lt;/div&gt;&lt;div&gt;&lt;span style=&quot;white-space: pre;&quot;&gt;&#x9;&lt;/span&gt;Password&lt;/div&gt;" style="shape=parallelogram;perimeter=parallelogramPerimeter;whiteSpace=wrap;html=1;fixedSize=1;align=left;" vertex="1" parent="1">
          <mxGeometry x="130" y="195" width="160" height="70" as="geometry" />
        </mxCell>
        <mxCell id="Um1293ms99un0iSA9eyB-66" value="" style="edgeStyle=orthogonalEdgeStyle;rounded=0;orthogonalLoop=1;jettySize=auto;html=1;" edge="1" parent="1" source="Um1293ms99un0iSA9eyB-35" target="Um1293ms99un0iSA9eyB-65">
          <mxGeometry relative="1" as="geometry" />
        </mxCell>
        <mxCell id="Um1293ms99un0iSA9eyB-35" value="Add Job" style="whiteSpace=wrap;html=1;" vertex="1" parent="1">
          <mxGeometry y="330" width="120" height="60" as="geometry" />
        </mxCell>
        <mxCell id="Um1293ms99un0iSA9eyB-81" value="" style="edgeStyle=orthogonalEdgeStyle;rounded=0;orthogonalLoop=1;jettySize=auto;html=1;" edge="1" parent="1" source="Um1293ms99un0iSA9eyB-37" target="Um1293ms99un0iSA9eyB-80">
          <mxGeometry relative="1" as="geometry" />
        </mxCell>
        <mxCell id="Um1293ms99un0iSA9eyB-37" value="&lt;div style=&quot;text-align: justify;&quot;&gt;&lt;span style=&quot;background-color: initial;&quot;&gt;Job Title&lt;/span&gt;&lt;/div&gt;&lt;div style=&quot;text-align: justify;&quot;&gt;Company Name&lt;/div&gt;&lt;div&gt;&lt;div style=&quot;text-align: justify;&quot;&gt;&lt;span style=&quot;background-color: initial;&quot;&gt;Location&lt;/span&gt;&lt;/div&gt;&lt;div style=&quot;text-align: justify;&quot;&gt;&lt;span style=&quot;background-color: initial;&quot;&gt;Description&lt;/span&gt;&lt;/div&gt;&lt;/div&gt;&lt;div style=&quot;text-align: justify;&quot;&gt;Email&lt;/div&gt;&lt;div style=&quot;text-align: justify;&quot;&gt;Jobseeker Type&lt;/div&gt;&lt;div style=&quot;text-align: justify;&quot;&gt;Apply&lt;/div&gt;" style="whiteSpace=wrap;html=1;" vertex="1" parent="1">
          <mxGeometry x="730" y="340" width="150" height="120" as="geometry" />
        </mxCell>
        <mxCell id="Um1293ms99un0iSA9eyB-56" value="" style="edgeStyle=orthogonalEdgeStyle;rounded=0;orthogonalLoop=1;jettySize=auto;html=1;" edge="1" parent="1" source="Um1293ms99un0iSA9eyB-42">
          <mxGeometry relative="1" as="geometry">
            <mxPoint x="410" y="80" as="targetPoint" />
            <Array as="points">
              <mxPoint x="620" y="80" />
            </Array>
          </mxGeometry>
        </mxCell>
        <mxCell id="Um1293ms99un0iSA9eyB-42" value="User must create a new account before proceeding to login" style="rounded=0;whiteSpace=wrap;html=1;" vertex="1" parent="1">
          <mxGeometry x="517" y="115" width="240" height="30" as="geometry" />
        </mxCell>
        <mxCell id="Um1293ms99un0iSA9eyB-57" value="False" style="text;html=1;align=center;verticalAlign=middle;whiteSpace=wrap;rounded=0;" vertex="1" parent="1">
          <mxGeometry x="467" y="112" width="50" height="20" as="geometry" />
        </mxCell>
        <mxCell id="Um1293ms99un0iSA9eyB-59" value="True" style="text;html=1;align=center;verticalAlign=middle;whiteSpace=wrap;rounded=0;" vertex="1" parent="1">
          <mxGeometry x="364" y="170" width="50" height="20" as="geometry" />
        </mxCell>
        <mxCell id="Um1293ms99un0iSA9eyB-62" value="" style="edgeStyle=orthogonalEdgeStyle;rounded=0;orthogonalLoop=1;jettySize=auto;html=1;" edge="1" parent="1">
          <mxGeometry relative="1" as="geometry">
            <mxPoint x="637" y="180" as="sourcePoint" />
            <mxPoint x="410" y="180" as="targetPoint" />
            <Array as="points" />
          </mxGeometry>
        </mxCell>
        <mxCell id="Um1293ms99un0iSA9eyB-60" value="User must insert correct email and password&amp;nbsp;" style="rounded=0;whiteSpace=wrap;html=1;" vertex="1" parent="1">
          <mxGeometry x="517" y="215" width="240" height="30" as="geometry" />
        </mxCell>
        <mxCell id="Um1293ms99un0iSA9eyB-63" value="False" style="text;html=1;align=center;verticalAlign=middle;whiteSpace=wrap;rounded=0;" vertex="1" parent="1">
          <mxGeometry x="467" y="213" width="50" height="20" as="geometry" />
        </mxCell>
        <mxCell id="Um1293ms99un0iSA9eyB-64" value="True" style="text;html=1;align=center;verticalAlign=middle;whiteSpace=wrap;rounded=0;" vertex="1" parent="1">
          <mxGeometry x="360" y="260" width="50" height="20" as="geometry" />
        </mxCell>
        <mxCell id="Um1293ms99un0iSA9eyB-65" value="&lt;div style=&quot;text-align: justify;&quot;&gt;&lt;span style=&quot;background-color: initial;&quot;&gt;Job Title&lt;/span&gt;&lt;/div&gt;&lt;div style=&quot;text-align: justify;&quot;&gt;Company Name&lt;/div&gt;&lt;div&gt;&lt;div style=&quot;text-align: justify;&quot;&gt;&lt;span style=&quot;background-color: initial;&quot;&gt;Location&lt;/span&gt;&lt;/div&gt;&lt;div style=&quot;text-align: justify;&quot;&gt;&lt;span style=&quot;background-color: initial;&quot;&gt;Description&lt;/span&gt;&lt;/div&gt;&lt;/div&gt;&lt;div style=&quot;text-align: justify;&quot;&gt;Email&lt;/div&gt;&lt;div style=&quot;text-align: justify;&quot;&gt;Jobseeker Type&lt;/div&gt;" style="shape=parallelogram;perimeter=parallelogramPerimeter;whiteSpace=wrap;html=1;fixedSize=1;" vertex="1" parent="1">
          <mxGeometry x="-210" y="285" width="160" height="150" as="geometry" />
        </mxCell>
        <mxCell id="Um1293ms99un0iSA9eyB-73" value="Job Seeker Table" style="rounded=1;whiteSpace=wrap;html=1;" vertex="1" parent="1">
          <mxGeometry x="730" y="320" width="150" height="20" as="geometry" />
        </mxCell>
        <mxCell id="Um1293ms99un0iSA9eyB-91" value="" style="edgeStyle=orthogonalEdgeStyle;rounded=0;orthogonalLoop=1;jettySize=auto;html=1;" edge="1" parent="1" source="Um1293ms99un0iSA9eyB-77" target="Um1293ms99un0iSA9eyB-86">
          <mxGeometry relative="1" as="geometry" />
        </mxCell>
        <mxCell id="Um1293ms99un0iSA9eyB-77" value="&lt;div style=&quot;text-align: justify;&quot;&gt;&lt;span style=&quot;background-color: initial;&quot;&gt;Job Title&lt;/span&gt;&lt;/div&gt;&lt;div style=&quot;text-align: justify;&quot;&gt;Company Name&lt;/div&gt;&lt;div&gt;&lt;div style=&quot;text-align: justify;&quot;&gt;&lt;span style=&quot;background-color: initial;&quot;&gt;Location&lt;/span&gt;&lt;/div&gt;&lt;div style=&quot;text-align: justify;&quot;&gt;&lt;span style=&quot;background-color: initial;&quot;&gt;Description&lt;/span&gt;&lt;/div&gt;&lt;/div&gt;&lt;div style=&quot;text-align: justify;&quot;&gt;Email&lt;/div&gt;&lt;div style=&quot;text-align: justify;&quot;&gt;Jobseeker Type&lt;/div&gt;&lt;div style=&quot;text-align: justify;&quot;&gt;Actions (Edit / Delete)&lt;/div&gt;" style="whiteSpace=wrap;html=1;" vertex="1" parent="1">
          <mxGeometry x="155" y="455" width="150" height="120" as="geometry" />
        </mxCell>
        <mxCell id="Um1293ms99un0iSA9eyB-78" value="Employer Table" style="rounded=1;whiteSpace=wrap;html=1;" vertex="1" parent="1">
          <mxGeometry x="155" y="435" width="150" height="20" as="geometry" />
        </mxCell>
        <mxCell id="Um1293ms99un0iSA9eyB-80" value="Proceed to Employers email for Applying" style="whiteSpace=wrap;html=1;" vertex="1" parent="1">
          <mxGeometry x="725" y="510" width="160" height="60" as="geometry" />
        </mxCell>
        <mxCell id="Um1293ms99un0iSA9eyB-82" value="Apply" style="text;html=1;align=center;verticalAlign=middle;whiteSpace=wrap;rounded=0;" vertex="1" parent="1">
          <mxGeometry x="800" y="470" width="60" height="30" as="geometry" />
        </mxCell>
        <mxCell id="Um1293ms99un0iSA9eyB-88" value="" style="edgeStyle=orthogonalEdgeStyle;rounded=0;orthogonalLoop=1;jettySize=auto;html=1;" edge="1" parent="1" source="Um1293ms99un0iSA9eyB-86" target="Um1293ms99un0iSA9eyB-87">
          <mxGeometry relative="1" as="geometry" />
        </mxCell>
        <mxCell id="Um1293ms99un0iSA9eyB-90" value="" style="edgeStyle=orthogonalEdgeStyle;rounded=0;orthogonalLoop=1;jettySize=auto;html=1;" edge="1" parent="1" source="Um1293ms99un0iSA9eyB-86" target="Um1293ms99un0iSA9eyB-89">
          <mxGeometry relative="1" as="geometry" />
        </mxCell>
        <mxCell id="Um1293ms99un0iSA9eyB-86" value="Actions" style="rounded=0;whiteSpace=wrap;html=1;" vertex="1" parent="1">
          <mxGeometry x="170" y="620" width="120" height="60" as="geometry" />
        </mxCell>
        <mxCell id="Um1293ms99un0iSA9eyB-93" value="" style="edgeStyle=orthogonalEdgeStyle;rounded=0;orthogonalLoop=1;jettySize=auto;html=1;" edge="1" parent="1" source="Um1293ms99un0iSA9eyB-87" target="Um1293ms99un0iSA9eyB-92">
          <mxGeometry relative="1" as="geometry" />
        </mxCell>
        <mxCell id="Um1293ms99un0iSA9eyB-87" value="Edit" style="rounded=0;whiteSpace=wrap;html=1;" vertex="1" parent="1">
          <mxGeometry x="50" y="725" width="120" height="60" as="geometry" />
        </mxCell>
        <mxCell id="Um1293ms99un0iSA9eyB-125" value="" style="edgeStyle=orthogonalEdgeStyle;rounded=0;orthogonalLoop=1;jettySize=auto;html=1;" edge="1" parent="1" source="Um1293ms99un0iSA9eyB-89" target="Um1293ms99un0iSA9eyB-124">
          <mxGeometry relative="1" as="geometry" />
        </mxCell>
        <mxCell id="Um1293ms99un0iSA9eyB-127" value="" style="edgeStyle=orthogonalEdgeStyle;rounded=0;orthogonalLoop=1;jettySize=auto;html=1;" edge="1" parent="1" source="Um1293ms99un0iSA9eyB-89">
          <mxGeometry relative="1" as="geometry">
            <mxPoint x="320" y="360" as="targetPoint" />
            <Array as="points">
              <mxPoint x="440" y="755" />
              <mxPoint x="440" y="520" />
              <mxPoint x="321" y="520" />
              <mxPoint x="321" y="370" />
            </Array>
          </mxGeometry>
        </mxCell>
        <mxCell id="Um1293ms99un0iSA9eyB-89" value="Delete" style="whiteSpace=wrap;html=1;rounded=0;" vertex="1" parent="1">
          <mxGeometry x="280" y="725" width="120" height="60" as="geometry" />
        </mxCell>
        <mxCell id="Um1293ms99un0iSA9eyB-92" value="&lt;div style=&quot;text-align: justify;&quot;&gt;&lt;span style=&quot;background-color: initial;&quot;&gt;Job Title&lt;/span&gt;&lt;/div&gt;&lt;div style=&quot;text-align: justify;&quot;&gt;Company Name&lt;/div&gt;&lt;div&gt;&lt;div style=&quot;text-align: justify;&quot;&gt;&lt;span style=&quot;background-color: initial;&quot;&gt;Location&lt;/span&gt;&lt;/div&gt;&lt;div style=&quot;text-align: justify;&quot;&gt;&lt;span style=&quot;background-color: initial;&quot;&gt;Description&lt;/span&gt;&lt;/div&gt;&lt;/div&gt;&lt;div style=&quot;text-align: justify;&quot;&gt;Email&lt;/div&gt;&lt;div style=&quot;text-align: justify;&quot;&gt;Jobseeker Type&lt;/div&gt;" style="shape=parallelogram;perimeter=parallelogramPerimeter;whiteSpace=wrap;html=1;fixedSize=1;" vertex="1" parent="1">
          <mxGeometry x="-140" y="680" width="160" height="150" as="geometry" />
        </mxCell>
        <mxCell id="Um1293ms99un0iSA9eyB-94" value="Employer Table" style="rounded=1;whiteSpace=wrap;html=1;" vertex="1" parent="1">
          <mxGeometry x="-120" y="660" width="140" height="20" as="geometry" />
        </mxCell>
        <mxCell id="Um1293ms99un0iSA9eyB-111" value="" style="edgeStyle=orthogonalEdgeStyle;rounded=0;orthogonalLoop=1;jettySize=auto;html=1;" edge="1" parent="1" source="Um1293ms99un0iSA9eyB-104" target="Um1293ms99un0iSA9eyB-107">
          <mxGeometry relative="1" as="geometry" />
        </mxCell>
        <mxCell id="Um1293ms99un0iSA9eyB-104" value="Hamburger Menu" style="rhombus;whiteSpace=wrap;html=1;" vertex="1" parent="1">
          <mxGeometry x="990" y="8" width="140" height="60" as="geometry" />
        </mxCell>
        <mxCell id="Um1293ms99un0iSA9eyB-112" value="" style="edgeStyle=orthogonalEdgeStyle;rounded=0;orthogonalLoop=1;jettySize=auto;html=1;" edge="1" parent="1" source="Um1293ms99un0iSA9eyB-107" target="Um1293ms99un0iSA9eyB-108">
          <mxGeometry relative="1" as="geometry" />
        </mxCell>
        <mxCell id="Um1293ms99un0iSA9eyB-120" value="" style="edgeStyle=orthogonalEdgeStyle;rounded=0;orthogonalLoop=1;jettySize=auto;html=1;" edge="1" parent="1" source="Um1293ms99un0iSA9eyB-107">
          <mxGeometry relative="1" as="geometry">
            <mxPoint x="410" y="283" as="targetPoint" />
            <Array as="points">
              <mxPoint x="930" y="133" />
              <mxPoint x="930" y="283" />
            </Array>
          </mxGeometry>
        </mxCell>
        <mxCell id="Um1293ms99un0iSA9eyB-107" value="Home" style="rhombus;whiteSpace=wrap;html=1;" vertex="1" parent="1">
          <mxGeometry x="990" y="103" width="140" height="60" as="geometry" />
        </mxCell>
        <mxCell id="Um1293ms99un0iSA9eyB-113" value="" style="edgeStyle=orthogonalEdgeStyle;rounded=0;orthogonalLoop=1;jettySize=auto;html=1;" edge="1" parent="1" source="Um1293ms99un0iSA9eyB-108" target="Um1293ms99un0iSA9eyB-109">
          <mxGeometry relative="1" as="geometry" />
        </mxCell>
        <mxCell id="Um1293ms99un0iSA9eyB-129" value="" style="edgeStyle=orthogonalEdgeStyle;rounded=0;orthogonalLoop=1;jettySize=auto;html=1;" edge="1" parent="1" source="Um1293ms99un0iSA9eyB-108" target="Um1293ms99un0iSA9eyB-128">
          <mxGeometry relative="1" as="geometry" />
        </mxCell>
        <mxCell id="Um1293ms99un0iSA9eyB-108" value="About Us" style="rhombus;whiteSpace=wrap;html=1;" vertex="1" parent="1">
          <mxGeometry x="990" y="201" width="140" height="60" as="geometry" />
        </mxCell>
        <mxCell id="Um1293ms99un0iSA9eyB-114" value="" style="edgeStyle=orthogonalEdgeStyle;rounded=0;orthogonalLoop=1;jettySize=auto;html=1;" edge="1" parent="1" source="Um1293ms99un0iSA9eyB-109" target="Um1293ms99un0iSA9eyB-110">
          <mxGeometry relative="1" as="geometry" />
        </mxCell>
        <mxCell id="Um1293ms99un0iSA9eyB-131" value="" style="edgeStyle=orthogonalEdgeStyle;rounded=0;orthogonalLoop=1;jettySize=auto;html=1;" edge="1" parent="1" source="Um1293ms99un0iSA9eyB-109" target="Um1293ms99un0iSA9eyB-130">
          <mxGeometry relative="1" as="geometry" />
        </mxCell>
        <mxCell id="Um1293ms99un0iSA9eyB-109" value="Contact us" style="rhombus;whiteSpace=wrap;html=1;" vertex="1" parent="1">
          <mxGeometry x="990" y="288" width="140" height="60" as="geometry" />
        </mxCell>
        <mxCell id="Um1293ms99un0iSA9eyB-122" value="" style="edgeStyle=orthogonalEdgeStyle;rounded=0;orthogonalLoop=1;jettySize=auto;html=1;" edge="1" parent="1" source="Um1293ms99un0iSA9eyB-110">
          <mxGeometry relative="1" as="geometry">
            <mxPoint x="440" y="180" as="targetPoint" />
            <Array as="points">
              <mxPoint x="920" y="408" />
              <mxPoint x="920" y="180" />
            </Array>
          </mxGeometry>
        </mxCell>
        <mxCell id="Um1293ms99un0iSA9eyB-110" value="Logout" style="rhombus;whiteSpace=wrap;html=1;" vertex="1" parent="1">
          <mxGeometry x="990" y="378" width="140" height="60" as="geometry" />
        </mxCell>
        <mxCell id="Um1293ms99un0iSA9eyB-123" value="" style="edgeStyle=orthogonalEdgeStyle;rounded=0;orthogonalLoop=1;jettySize=auto;html=1;" edge="1" parent="1" source="Um1293ms99un0iSA9eyB-60">
          <mxGeometry relative="1" as="geometry">
            <mxPoint x="637" y="215" as="sourcePoint" />
            <mxPoint x="637" y="180" as="targetPoint" />
            <Array as="points">
              <mxPoint x="637" y="180" />
            </Array>
          </mxGeometry>
        </mxCell>
        <mxCell id="Um1293ms99un0iSA9eyB-124" value="Delete Job" style="whiteSpace=wrap;html=1;rounded=0;" vertex="1" parent="1">
          <mxGeometry x="280" y="810" width="120" height="60" as="geometry" />
        </mxCell>
        <mxCell id="Um1293ms99un0iSA9eyB-128" value="Who We Are&lt;div&gt;Our Mission&lt;/div&gt;&lt;div&gt;Meet the Team&amp;nbsp;&lt;/div&gt;" style="whiteSpace=wrap;html=1;" vertex="1" parent="1">
          <mxGeometry x="1190" y="201" width="120" height="60" as="geometry" />
        </mxCell>
        <mxCell id="Um1293ms99un0iSA9eyB-130" value="Name&lt;div&gt;Email&lt;/div&gt;&lt;div&gt;Subject&lt;/div&gt;&lt;div&gt;Message&lt;/div&gt;" style="shape=parallelogram;perimeter=parallelogramPerimeter;whiteSpace=wrap;html=1;fixedSize=1;" vertex="1" parent="1">
          <mxGeometry x="1190" y="288" width="120" height="60" as="geometry" />
        </mxCell>
      </root>
    </mxGraphModel>
  </diagram>
</mxfile>
